<svg width="50" height="60" viewBox="0 0 50 60" fill="none" xmlns="http://www.w3.org/2000/svg">
<path d="M4.62586 43.6718C3.92586 43.6718 3.29919 43.5084 2.74586 43.1818C2.19253 42.8484 1.75586 42.3884 1.43586 41.8018C1.12253 41.2151 0.96586 40.5584 0.96586 39.8318C0.96586 39.0984 1.12253 38.4384 1.43586 37.8518C1.75586 37.2651 2.19253 36.8084 2.74586 36.4818C3.29919 36.1484 3.92586 35.9818 4.62586 35.9818C5.11253 35.9818 5.56253 36.0718 5.97586 36.2518C6.39586 36.4251 6.74919 36.6551 7.03586 36.9418C7.32253 37.2284 7.52919 37.5384 7.65586 37.8718L6.75586 38.2918C6.57586 37.8584 6.29919 37.5184 5.92586 37.2718C5.55919 37.0184 5.12586 36.8918 4.62586 36.8918C4.10586 36.8918 3.64253 37.0151 3.23586 37.2618C2.83586 37.5084 2.52253 37.8551 2.29586 38.3018C2.06919 38.7484 1.95586 39.2584 1.95586 39.8318C1.95586 40.4051 2.06919 40.9151 2.29586 41.3618C2.52253 41.8018 2.83586 42.1451 3.23586 42.3918C3.64253 42.6384 4.10586 42.7618 4.62586 42.7618C5.12586 42.7618 5.55919 42.6384 5.92586 42.3918C6.29919 42.1384 6.57586 41.7984 6.75586 41.3718L7.65586 41.7818C7.52919 42.1151 7.32253 42.4284 7.03586 42.7218C6.74919 43.0084 6.39586 43.2384 5.97586 43.4118C5.56253 43.5851 5.11253 43.6718 4.62586 43.6718ZM10.3514 43.6718C10.0047 43.6718 9.69141 43.6084 9.41141 43.4818C9.13807 43.3484 8.92474 43.1684 8.77141 42.9418C8.61807 42.7084 8.54141 42.4418 8.54141 42.1418C8.54141 41.7018 8.68807 41.3318 8.98141 41.0318C9.27474 40.7318 9.71807 40.5351 10.3114 40.4418L12.3014 40.1118V40.8918L10.5214 41.2018C10.1814 41.2551 9.93141 41.3618 9.77141 41.5218C9.61141 41.6751 9.53141 41.8718 9.53141 42.1118C9.53141 42.3318 9.61807 42.5151 9.79141 42.6618C9.97141 42.8084 10.1947 42.8818 10.4614 42.8818C10.7881 42.8818 11.0781 42.8118 11.3314 42.6718C11.5914 42.5318 11.7914 42.3384 11.9314 42.0918C12.0714 41.8384 12.1414 41.5651 12.1414 41.2718V39.8918C12.1414 39.5984 12.0314 39.3618 11.8114 39.1818C11.5981 38.9951 11.3181 38.9018 10.9714 38.9018C10.6647 38.9018 10.3947 38.9818 10.1614 39.1418C9.92807 39.2951 9.75141 39.5018 9.63141 39.7618L8.82141 39.3418C8.97474 38.9684 9.25474 38.6584 9.66141 38.4118C10.0681 38.1651 10.5114 38.0418 10.9914 38.0418C11.3981 38.0418 11.7581 38.1218 12.0714 38.2818C12.3914 38.4351 12.6381 38.6551 12.8114 38.9418C12.9914 39.2218 13.0814 39.5384 13.0814 39.8918V43.5518H12.1714V42.5318L12.3414 42.6018C12.1681 42.9284 11.9047 43.1884 11.5514 43.3818C11.1981 43.5751 10.7981 43.6718 10.3514 43.6718ZM14.5134 38.1618H15.4334V39.2618L15.3034 39.1018C15.4367 38.7684 15.6467 38.5084 15.9334 38.3218C16.22 38.1351 16.5534 38.0418 16.9334 38.0418C17.36 38.0418 17.74 38.1584 18.0734 38.3918C18.4067 38.6251 18.6367 38.9318 18.7634 39.3118L18.5034 39.3218C18.6434 38.9151 18.8767 38.6018 19.2034 38.3818C19.53 38.1551 19.9034 38.0418 20.3234 38.0418C20.6967 38.0418 21.0334 38.1318 21.3334 38.3118C21.64 38.4851 21.8834 38.7251 22.0634 39.0318C22.2434 39.3384 22.3334 39.6818 22.3334 40.0618V43.5518H21.3934V40.3618C21.3934 40.0751 21.34 39.8251 21.2334 39.6118C21.1267 39.3984 20.98 39.2351 20.7934 39.1218C20.6067 39.0084 20.3934 38.9518 20.1534 38.9518C19.7867 38.9518 19.4834 39.0818 19.2434 39.3418C19.01 39.5951 18.8934 39.9351 18.8934 40.3618V43.5518H17.9534V40.3618C17.9534 40.0751 17.9 39.8251 17.7934 39.6118C17.6867 39.3984 17.54 39.2351 17.3534 39.1218C17.1734 39.0084 16.96 38.9518 16.7134 38.9518C16.3467 38.9518 16.0434 39.0818 15.8034 39.3418C15.57 39.5951 15.4534 39.9351 15.4534 40.3618V43.5518H14.5134V38.1618ZM23.6442 38.1618H24.5642V39.3218L24.4442 39.0918C24.6442 38.7651 24.9176 38.5084 25.2642 38.3218C25.6176 38.1351 26.0142 38.0418 26.4542 38.0418C26.9542 38.0418 27.4076 38.1651 27.8142 38.4118C28.2276 38.6584 28.5476 38.9984 28.7742 39.4318C29.0076 39.8584 29.1242 40.3351 29.1242 40.8618C29.1242 41.3884 29.0076 41.8651 28.7742 42.2918C28.5409 42.7184 28.2209 43.0551 27.8142 43.3018C27.4076 43.5484 26.9509 43.6718 26.4442 43.6718C26.0042 43.6718 25.6042 43.5751 25.2442 43.3818C24.8909 43.1884 24.6209 42.9151 24.4342 42.5618L24.5842 42.4018V45.5518H23.6442V38.1618ZM26.3742 42.7718C26.7076 42.7718 27.0076 42.6884 27.2742 42.5218C27.5409 42.3551 27.7509 42.1284 27.9042 41.8418C28.0576 41.5484 28.1342 41.2218 28.1342 40.8618C28.1342 40.5018 28.0576 40.1784 27.9042 39.8918C27.7509 39.5984 27.5409 39.3684 27.2742 39.2018C27.0076 39.0351 26.7076 38.9518 26.3742 38.9518C26.0409 38.9518 25.7376 39.0351 25.4642 39.2018C25.1909 39.3684 24.9742 39.5984 24.8142 39.8918C24.6609 40.1784 24.5842 40.5018 24.5842 40.8618C24.5842 41.2151 24.6609 41.5384 24.8142 41.8318C24.9742 42.1251 25.1909 42.3551 25.4642 42.5218C25.7376 42.6884 26.0409 42.7718 26.3742 42.7718ZM31.9237 43.6718C31.577 43.6718 31.2637 43.6084 30.9837 43.4818C30.7103 43.3484 30.497 43.1684 30.3437 42.9418C30.1903 42.7084 30.1137 42.4418 30.1137 42.1418C30.1137 41.7018 30.2603 41.3318 30.5537 41.0318C30.847 40.7318 31.2903 40.5351 31.8837 40.4418L33.8737 40.1118V40.8918L32.0937 41.2018C31.7537 41.2551 31.5037 41.3618 31.3437 41.5218C31.1837 41.6751 31.1037 41.8718 31.1037 42.1118C31.1037 42.3318 31.1903 42.5151 31.3637 42.6618C31.5437 42.8084 31.767 42.8818 32.0337 42.8818C32.3603 42.8818 32.6503 42.8118 32.9037 42.6718C33.1637 42.5318 33.3637 42.3384 33.5037 42.0918C33.6437 41.8384 33.7137 41.5651 33.7137 41.2718V39.8918C33.7137 39.5984 33.6037 39.3618 33.3837 39.1818C33.1703 38.9951 32.8903 38.9018 32.5437 38.9018C32.237 38.9018 31.967 38.9818 31.7337 39.1418C31.5003 39.2951 31.3237 39.5018 31.2037 39.7618L30.3937 39.3418C30.547 38.9684 30.827 38.6584 31.2337 38.4118C31.6403 38.1651 32.0837 38.0418 32.5637 38.0418C32.9703 38.0418 33.3303 38.1218 33.6437 38.2818C33.9637 38.4351 34.2103 38.6551 34.3837 38.9418C34.5637 39.2218 34.6537 39.5384 34.6537 39.8918V43.5518H33.7437V42.5318L33.9137 42.6018C33.7403 42.9284 33.477 43.1884 33.1237 43.3818C32.7703 43.5751 32.3703 43.6718 31.9237 43.6718ZM36.0856 38.1618H37.0256V43.5518H36.0856V38.1618ZM36.5656 37.3018C36.3923 37.3018 36.2523 37.2484 36.1456 37.1418C36.039 37.0351 35.9856 36.8951 35.9856 36.7218C35.9856 36.5484 36.039 36.4084 36.1456 36.3018C36.2523 36.1951 36.3923 36.1418 36.5656 36.1418C36.739 36.1418 36.879 36.1951 36.9856 36.3018C37.0923 36.4084 37.1456 36.5484 37.1456 36.7218C37.1456 36.8951 37.0923 37.0351 36.9856 37.1418C36.879 37.2484 36.739 37.3018 36.5656 37.3018ZM41.0289 45.7518C40.4622 45.7518 39.9622 45.6218 39.5289 45.3618C39.1022 45.1084 38.7989 44.7684 38.6189 44.3418L39.4889 43.9418C39.5889 44.2084 39.7722 44.4251 40.0389 44.5918C40.3056 44.7651 40.6289 44.8518 41.0089 44.8518C41.3156 44.8518 41.5956 44.7918 41.8489 44.6718C42.1022 44.5518 42.3022 44.3751 42.4489 44.1418C42.5956 43.9151 42.6689 43.6418 42.6689 43.3218V42.1118L42.8289 42.2918C42.6489 42.6518 42.3856 42.9318 42.0389 43.1318C41.6922 43.3251 41.3022 43.4218 40.8689 43.4218C40.3756 43.4218 39.9256 43.3051 39.5189 43.0718C39.1189 42.8318 38.8022 42.5084 38.5689 42.1018C38.3422 41.6884 38.2289 41.2318 38.2289 40.7318C38.2289 40.2318 38.3422 39.7784 38.5689 39.3718C38.8022 38.9584 39.1189 38.6351 39.5189 38.4018C39.9189 38.1618 40.3689 38.0418 40.8689 38.0418C41.2822 38.0418 41.6589 38.1351 41.9989 38.3218C42.3456 38.5084 42.6222 38.7718 42.8289 39.1118L42.6989 39.3618V38.1618H43.6089V43.3218C43.6089 43.7884 43.4989 44.2051 43.2789 44.5718C43.0589 44.9384 42.7522 45.2251 42.3589 45.4318C41.9656 45.6451 41.5222 45.7518 41.0289 45.7518ZM40.9589 42.5218C41.2722 42.5218 41.5589 42.4418 41.8189 42.2818C42.0856 42.1218 42.2922 41.9051 42.4389 41.6318C42.5922 41.3584 42.6689 41.0584 42.6689 40.7318C42.6689 40.4118 42.5922 40.1151 42.4389 39.8418C42.2922 39.5684 42.0856 39.3518 41.8189 39.1918C41.5589 39.0318 41.2722 38.9518 40.9589 38.9518C40.6322 38.9518 40.3356 39.0318 40.0689 39.1918C39.8022 39.3518 39.5922 39.5684 39.4389 39.8418C39.2922 40.1084 39.2189 40.4051 39.2189 40.7318C39.2189 41.0651 39.2922 41.3684 39.4389 41.6418C39.5922 41.9084 39.8022 42.1218 40.0689 42.2818C40.3356 42.4418 40.6322 42.5218 40.9589 42.5218ZM45.0309 38.1618H45.9509V39.2118L45.8009 39.1218C45.9343 38.7818 46.1476 38.5184 46.4409 38.3318C46.7409 38.1384 47.0909 38.0418 47.4909 38.0418C47.8709 38.0418 48.2143 38.1284 48.5209 38.3018C48.8276 38.4751 49.0676 38.7184 49.2409 39.0318C49.4209 39.3384 49.5109 39.6818 49.5109 40.0618V43.5518H48.5709V40.3618C48.5709 40.0684 48.5176 39.8184 48.4109 39.6118C48.3043 39.3984 48.1509 39.2351 47.9509 39.1218C47.7576 39.0084 47.5343 38.9518 47.2809 38.9518C46.8943 38.9518 46.5776 39.0784 46.3309 39.3318C46.0909 39.5851 45.9709 39.9284 45.9709 40.3618V43.5518H45.0309V38.1618Z" fill="white"/>
<path d="M26.6159 19.1252C26.4963 19.1252 26.3843 19.0709 26.2797 18.9622C26.0332 18.6907 25.9809 18.1802 26.1677 17.8217C27.3404 15.5516 27.3404 12.3798 26.1677 10.1097C25.9809 9.7512 26.0332 9.24069 26.2797 8.96914C26.5262 8.69758 26.8773 8.77362 27.064 9.13207C28.528 11.9779 28.528 15.9535 27.064 18.7993C26.952 19.0166 26.7877 19.1252 26.6159 19.1252Z" fill="white"/>
<path d="M27.9828 21.8406C27.8633 21.8406 27.7512 21.7863 27.6466 21.6777C27.4002 21.4061 27.3479 20.8956 27.5346 20.5372C29.529 16.6703 29.529 11.261 27.5346 7.39408C27.3479 7.03563 27.4002 6.52511 27.6466 6.25356C27.8931 5.98201 28.2442 6.05804 28.4309 6.41649C30.7241 10.8591 30.7241 17.0722 28.4309 21.5148C28.3264 21.732 28.1546 21.8406 27.9828 21.8406Z" fill="white"/>
<path d="M23.643 5.03709C22.8064 4.36364 21.7383 4.53744 20.6477 5.52589L18.4666 7.51364C18.3172 7.64399 18.1454 7.72002 17.9736 7.72002H17.279H16.9055C15.0979 7.72002 14.1044 9.16468 14.1044 11.7933V16.1381C14.1044 18.7667 15.0979 20.2114 16.9055 20.2114H17.279H17.9736C18.1454 20.2114 18.3172 20.2874 18.4666 20.4178L20.6477 22.4055C21.305 23.003 21.9474 23.2962 22.545 23.2962C22.9334 23.2962 23.3069 23.1659 23.643 22.8943C24.4721 22.2209 24.9352 20.8197 24.9352 18.9514V8.98002C24.9352 7.11175 24.4721 5.71054 23.643 5.03709Z" fill="white"/>
</svg>
