<svg width="53" height="46" viewBox="0 0 53 46" fill="none" xmlns="http://www.w3.org/2000/svg">
<path d="M4.28 34.12C3.58667 34.12 2.96333 33.9567 2.41 33.63C1.86333 33.2967 1.43333 32.84 1.12 32.26C0.813333 31.6733 0.66 31.0133 0.66 30.28C0.66 29.5467 0.813333 28.8867 1.12 28.3C1.43333 27.7133 1.86333 27.2567 2.41 26.93C2.96333 26.5967 3.58667 26.43 4.28 26.43C4.76 26.43 5.20333 26.52 5.61 26.7C6.01667 26.8733 6.36 27.1033 6.64 27.39C6.92667 27.67 7.13333 27.97 7.26 28.29L6.51 28.62C6.31667 28.1733 6.02667 27.8233 5.64 27.57C5.25333 27.31 4.8 27.18 4.28 27.18C3.73333 27.18 3.24667 27.31 2.82 27.57C2.39333 27.83 2.06 28.1967 1.82 28.67C1.58 29.1367 1.46 29.6733 1.46 30.28C1.46 30.8867 1.58 31.4267 1.82 31.9C2.06 32.3667 2.39333 32.73 2.82 32.99C3.24667 33.2433 3.73333 33.37 4.28 33.37C4.8 33.37 5.25333 33.2433 5.64 32.99C6.02667 32.7367 6.31667 32.3867 6.51 31.94L7.26 32.27C7.13333 32.59 6.92667 32.8933 6.64 33.18C6.36 33.46 6.01667 33.6867 5.61 33.86C5.20333 34.0333 4.76 34.12 4.28 34.12ZM10.4825 34.12C10.1092 34.12 9.76917 34.0333 9.4625 33.86C9.15583 33.68 8.9125 33.43 8.7325 33.11C8.55917 32.79 8.4725 32.4267 8.4725 32.02V28.64H9.2225V31.93C9.2225 32.3633 9.34917 32.7133 9.6025 32.98C9.8625 33.24 10.1992 33.37 10.6125 33.37C11.0325 33.37 11.3725 33.2333 11.6325 32.96C11.8925 32.68 12.0225 32.3033 12.0225 31.83V28.64H12.7725V34H12.0225V32.96L12.1925 33C12.0592 33.3467 11.8392 33.62 11.5325 33.82C11.2325 34.02 10.8825 34.12 10.4825 34.12ZM16.2249 34.12C15.7116 34.1267 15.2583 34.0033 14.8649 33.75C14.4716 33.4967 14.1849 33.15 14.0049 32.71L14.6349 32.39C14.7949 32.7233 15.0149 32.9833 15.2949 33.17C15.5749 33.3567 15.8816 33.4467 16.2149 33.44C16.5416 33.4333 16.8116 33.35 17.0249 33.19C17.2383 33.03 17.3416 32.8233 17.3349 32.57C17.3283 32.3233 17.2249 32.1267 17.0249 31.98C16.8249 31.8267 16.6249 31.74 16.4249 31.72L15.6549 31.63C15.1749 31.5033 14.8183 31.3067 14.5849 31.04C14.3516 30.7667 14.2316 30.4533 14.2249 30.1C14.2183 29.7933 14.2916 29.5233 14.4449 29.29C14.5983 29.05 14.8116 28.8633 15.0849 28.73C15.3583 28.5967 15.6616 28.5267 15.9949 28.52C16.4483 28.5067 16.8616 28.62 17.2349 28.86C17.6083 29.0933 17.8749 29.4133 18.0349 29.82L17.4049 30.14C17.2649 29.84 17.0683 29.6067 16.8149 29.44C16.5616 29.2733 16.2816 29.1933 15.9749 29.2C15.6816 29.2067 15.4449 29.2867 15.2649 29.44C15.0849 29.5933 14.9983 29.79 15.0049 30.03C15.0116 30.2767 15.1016 30.4733 15.2749 30.62C15.4483 30.76 15.6249 30.84 15.8049 30.86L16.6949 30.96C17.1283 31.08 17.4683 31.2833 17.7149 31.57C17.9683 31.8567 18.0983 32.1833 18.1049 32.55C18.1116 32.8433 18.0349 33.11 17.8749 33.35C17.7216 33.5833 17.4983 33.77 17.2049 33.91C16.9183 34.0433 16.5916 34.1133 16.2249 34.12ZM21.4528 34.06C20.9728 34.06 20.6028 33.92 20.3428 33.64C20.0828 33.36 19.9528 32.96 19.9528 32.44V29.39H18.9628V28.64H19.2128C19.4328 28.64 19.6095 28.5667 19.7428 28.42C19.8828 28.2733 19.9528 28.0833 19.9528 27.85V27.3H20.7028V28.64H21.8828V29.39H20.7028V32.44C20.7028 32.7333 20.7695 32.96 20.9028 33.12C21.0361 33.28 21.2628 33.36 21.5828 33.36C21.7295 33.36 21.8561 33.35 21.9628 33.33V34.01C21.8295 34.0433 21.6595 34.06 21.4528 34.06ZM25.5945 34.12C25.0945 34.12 24.6345 34 24.2145 33.76C23.8011 33.5133 23.4711 33.1767 23.2245 32.75C22.9845 32.3167 22.8645 31.8367 22.8645 31.31C22.8645 30.7833 22.9811 30.31 23.2145 29.89C23.4545 29.4633 23.7811 29.13 24.1945 28.89C24.6145 28.6433 25.0811 28.52 25.5945 28.52C26.1078 28.52 26.5711 28.64 26.9845 28.88C27.3978 29.12 27.7211 29.4533 27.9545 29.88C28.1945 30.3067 28.3145 30.7833 28.3145 31.31C28.3145 31.85 28.1911 32.3333 27.9445 32.76C27.7045 33.1867 27.3745 33.52 26.9545 33.76C26.5411 34 26.0878 34.12 25.5945 34.12ZM25.5945 33.37C25.9478 33.37 26.2711 33.28 26.5645 33.1C26.8578 32.92 27.0878 32.6733 27.2545 32.36C27.4278 32.04 27.5145 31.69 27.5145 31.31C27.5145 30.93 27.4278 30.5867 27.2545 30.28C27.0878 29.9667 26.8578 29.72 26.5645 29.54C26.2711 29.36 25.9478 29.27 25.5945 29.27C25.2411 29.27 24.9145 29.36 24.6145 29.54C24.3211 29.72 24.0878 29.9667 23.9145 30.28C23.7478 30.5867 23.6645 30.93 23.6645 31.31C23.6645 31.6967 23.7478 32.0467 23.9145 32.36C24.0878 32.6733 24.3211 32.92 24.6145 33.1C24.9145 33.28 25.2411 33.37 25.5945 33.37ZM29.6372 28.64H30.3872V29.66L30.2672 29.51C30.4139 29.2033 30.6305 28.9633 30.9172 28.79C31.2039 28.61 31.5239 28.52 31.8772 28.52C32.2905 28.52 32.6639 28.6367 32.9972 28.87C33.3305 29.0967 33.5672 29.4 33.7072 29.78L33.4972 29.79C33.6305 29.39 33.8572 29.08 34.1772 28.86C34.5039 28.6333 34.8739 28.52 35.2872 28.52C35.6472 28.52 35.9772 28.61 36.2772 28.79C36.5839 28.9633 36.8272 29.2033 37.0072 29.51C37.1939 29.81 37.2872 30.1467 37.2872 30.52V34H36.5372V30.81C36.5372 30.4967 36.4772 30.2233 36.3572 29.99C36.2439 29.7567 36.0872 29.58 35.8872 29.46C35.6872 29.3333 35.4572 29.27 35.1972 29.27C34.8039 29.27 34.4772 29.41 34.2172 29.69C33.9639 29.97 33.8372 30.3433 33.8372 30.81V34H33.0872V30.81C33.0872 30.4967 33.0272 30.2233 32.9072 29.99C32.7939 29.7567 32.6372 29.58 32.4372 29.46C32.2372 29.3333 32.0072 29.27 31.7472 29.27C31.3539 29.27 31.0272 29.41 30.7672 29.69C30.5139 29.97 30.3872 30.3433 30.3872 30.81V34H29.6372V28.64ZM41.1592 34.12C40.6659 34.12 40.2159 34 39.8092 33.76C39.4026 33.5133 39.0826 33.1767 38.8492 32.75C38.6159 32.3167 38.4992 31.8333 38.4992 31.3C38.4992 30.7733 38.6092 30.3 38.8292 29.88C39.0559 29.4533 39.3659 29.12 39.7592 28.88C40.1526 28.64 40.5926 28.52 41.0792 28.52C41.5726 28.52 42.0059 28.64 42.3792 28.88C42.7526 29.12 43.0392 29.4367 43.2392 29.83C43.4459 30.2233 43.5492 30.6367 43.5492 31.07C43.5492 31.2367 43.5359 31.3967 43.5092 31.55H38.9792V30.85H43.0792L42.7192 31.15C42.7726 30.7967 42.7292 30.4733 42.5892 30.18C42.4559 29.88 42.2526 29.6467 41.9792 29.48C41.7059 29.3067 41.4059 29.22 41.0792 29.22C40.7459 29.22 40.4359 29.3067 40.1492 29.48C39.8626 29.6533 39.6392 29.9 39.4792 30.22C39.3259 30.54 39.2659 30.9033 39.2992 31.31C39.2659 31.7233 39.3326 32.09 39.4992 32.41C39.6659 32.73 39.8959 32.98 40.1892 33.16C40.4892 33.3333 40.8126 33.42 41.1592 33.42C41.5259 33.42 41.8426 33.3333 42.1092 33.16C42.3826 32.98 42.6126 32.74 42.7992 32.44L43.4392 32.78C43.2659 33.16 42.9726 33.48 42.5592 33.74C42.1526 33.9933 41.6859 34.12 41.1592 34.12ZM44.8716 28.64H45.6216V29.52L45.5216 29.39C45.6482 29.13 45.8382 28.93 46.0916 28.79C46.3516 28.6433 46.6649 28.57 47.0316 28.57H47.3716V29.32H46.9016C46.5082 29.32 46.1949 29.4433 45.9616 29.69C45.7349 29.93 45.6216 30.2667 45.6216 30.7V34H44.8716V28.64ZM50.1605 34.12C49.6471 34.1267 49.1938 34.0033 48.8005 33.75C48.4071 33.4967 48.1205 33.15 47.9405 32.71L48.5705 32.39C48.7305 32.7233 48.9505 32.9833 49.2305 33.17C49.5105 33.3567 49.8171 33.4467 50.1505 33.44C50.4771 33.4333 50.7471 33.35 50.9605 33.19C51.1738 33.03 51.2771 32.8233 51.2705 32.57C51.2638 32.3233 51.1605 32.1267 50.9605 31.98C50.7605 31.8267 50.5605 31.74 50.3605 31.72L49.5905 31.63C49.1105 31.5033 48.7538 31.3067 48.5205 31.04C48.2871 30.7667 48.1671 30.4533 48.1605 30.1C48.1538 29.7933 48.2271 29.5233 48.3805 29.29C48.5338 29.05 48.7471 28.8633 49.0205 28.73C49.2938 28.5967 49.5971 28.5267 49.9305 28.52C50.3838 28.5067 50.7971 28.62 51.1705 28.86C51.5438 29.0933 51.8105 29.4133 51.9705 29.82L51.3405 30.14C51.2005 29.84 51.0038 29.6067 50.7505 29.44C50.4971 29.2733 50.2171 29.1933 49.9105 29.2C49.6171 29.2067 49.3805 29.2867 49.2005 29.44C49.0205 29.5933 48.9338 29.79 48.9405 30.03C48.9471 30.2767 49.0371 30.4733 49.2105 30.62C49.3838 30.76 49.5605 30.84 49.7405 30.86L50.6305 30.96C51.0638 31.08 51.4038 31.2833 51.6505 31.57C51.9038 31.8567 52.0338 32.1833 52.0405 32.55C52.0471 32.8433 51.9705 33.11 51.8105 33.35C51.6571 33.5833 51.4338 33.77 51.1405 33.91C50.8538 34.0433 50.5271 34.1133 50.1605 34.12Z" fill="white"/>
<path d="M24.0147 10.1675C23.9884 10.1675 23.9709 10.1675 23.9447 10.1675C23.9009 10.1587 23.8397 10.1587 23.7872 10.1675C21.2497 10.0887 19.3334 8.09375 19.3334 5.635C19.3334 3.1325 21.3722 1.09375 23.8747 1.09375C26.3772 1.09375 28.4159 3.1325 28.4159 5.635C28.4072 8.09375 26.4822 10.0887 24.0409 10.1675C24.0322 10.1675 24.0234 10.1675 24.0147 10.1675ZM23.8747 2.40625C22.0984 2.40625 20.6459 3.85875 20.6459 5.635C20.6459 7.385 22.0109 8.79375 23.7522 8.855C23.8047 8.84625 23.9184 8.84625 24.0322 8.855C25.7472 8.77625 27.0947 7.3675 27.1034 5.635C27.1034 3.85875 25.6509 2.40625 23.8747 2.40625Z" fill="white"/>
<path d="M30.4722 10.2812C30.4459 10.2812 30.4197 10.2812 30.3934 10.2725C30.0347 10.3075 29.6672 10.0537 29.6322 9.695C29.5972 9.33625 29.8159 9.0125 30.1747 8.96875C30.2797 8.96 30.3934 8.96 30.4897 8.96C31.7672 8.89 32.7647 7.84 32.7647 6.55375C32.7647 5.22375 31.6884 4.1475 30.3584 4.1475C29.9997 4.15625 29.7022 3.85875 29.7022 3.5C29.7022 3.14125 29.9997 2.84375 30.3584 2.84375C32.4059 2.84375 34.0772 4.515 34.0772 6.5625C34.0772 8.575 32.5022 10.2025 30.4984 10.2812C30.4897 10.2812 30.4809 10.2812 30.4722 10.2812Z" fill="white"/>
<path d="M24.0234 19.7313C22.3084 19.7313 20.5847 19.2938 19.2809 18.4188C18.0647 17.6138 17.3997 16.5113 17.3997 15.3125C17.3997 14.1138 18.0647 13.0025 19.2809 12.1888C21.9059 10.4475 26.1584 10.4475 28.7659 12.1888C29.9734 12.9938 30.6472 14.0963 30.6472 15.295C30.6472 16.4938 29.9822 17.605 28.7659 18.4188C27.4534 19.2938 25.7384 19.7313 24.0234 19.7313ZM20.0072 13.2913C19.1672 13.8513 18.7122 14.5688 18.7122 15.3213C18.7122 16.065 19.1759 16.7825 20.0072 17.3338C22.1859 18.795 25.8609 18.795 28.0397 17.3338C28.8797 16.7738 29.3347 16.0563 29.3347 15.3038C29.3347 14.56 28.8709 13.8425 28.0397 13.2913C25.8609 11.8387 22.1859 11.8387 20.0072 13.2913Z" fill="white"/>
<path d="M32.0472 18.1563C31.7409 18.1563 31.4697 17.9463 31.4084 17.6313C31.3384 17.2725 31.5659 16.9313 31.9159 16.8525C32.4672 16.7388 32.9747 16.52 33.3684 16.2138C33.8672 15.8375 34.1384 15.365 34.1384 14.8663C34.1384 14.3675 33.8672 13.895 33.3772 13.5275C32.9922 13.23 32.5109 13.02 31.9422 12.8888C31.5922 12.81 31.3647 12.46 31.4434 12.1013C31.5222 11.7513 31.8722 11.5238 32.2309 11.6025C32.9834 11.7688 33.6397 12.0663 34.1734 12.4775C34.9872 13.09 35.4509 13.9563 35.4509 14.8663C35.4509 15.7763 34.9784 16.6425 34.1647 17.2638C33.6222 17.6838 32.9397 17.99 32.1872 18.1388C32.1347 18.1563 32.0909 18.1563 32.0472 18.1563Z" fill="white"/>
</svg>
