<svg width="70" height="257" viewBox="0 0 70 257" fill="none" xmlns="http://www.w3.org/2000/svg">
<path d="M28.88 30.55H29.68V33.9H33.68V30.55H34.48V38H33.68V34.65H29.68V38H28.88V30.55ZM38.6433 38.12C38.1433 38.12 37.6833 38 37.2633 37.76C36.8499 37.5133 36.5199 37.1767 36.2733 36.75C36.0333 36.3167 35.9133 35.8367 35.9133 35.31C35.9133 34.7833 36.0299 34.31 36.2633 33.89C36.5033 33.4633 36.8299 33.13 37.2433 32.89C37.6633 32.6433 38.1299 32.52 38.6433 32.52C39.1566 32.52 39.6199 32.64 40.0333 32.88C40.4466 33.12 40.7699 33.4533 41.0033 33.88C41.2433 34.3067 41.3633 34.7833 41.3633 35.31C41.3633 35.85 41.2399 36.3333 40.9933 36.76C40.7533 37.1867 40.4233 37.52 40.0033 37.76C39.5899 38 39.1366 38.12 38.6433 38.12ZM38.6433 37.37C38.9966 37.37 39.3199 37.28 39.6133 37.1C39.9066 36.92 40.1366 36.6733 40.3033 36.36C40.4766 36.04 40.5633 35.69 40.5633 35.31C40.5633 34.93 40.4766 34.5867 40.3033 34.28C40.1366 33.9667 39.9066 33.72 39.6133 33.54C39.3199 33.36 38.9966 33.27 38.6433 33.27C38.2899 33.27 37.9633 33.36 37.6633 33.54C37.3699 33.72 37.1366 33.9667 36.9633 34.28C36.7966 34.5867 36.7133 34.93 36.7133 35.31C36.7133 35.6967 36.7966 36.0467 36.9633 36.36C37.1366 36.6733 37.3699 36.92 37.6633 37.1C37.9633 37.28 38.2899 37.37 38.6433 37.37ZM42.686 32.64H43.436V33.66L43.316 33.51C43.4627 33.2033 43.6793 32.9633 43.966 32.79C44.2527 32.61 44.5727 32.52 44.926 32.52C45.3393 32.52 45.7127 32.6367 46.046 32.87C46.3793 33.0967 46.616 33.4 46.756 33.78L46.546 33.79C46.6793 33.39 46.906 33.08 47.226 32.86C47.5527 32.6333 47.9227 32.52 48.336 32.52C48.696 32.52 49.026 32.61 49.326 32.79C49.6327 32.9633 49.876 33.2033 50.056 33.51C50.2427 33.81 50.336 34.1467 50.336 34.52V38H49.586V34.81C49.586 34.4967 49.526 34.2233 49.406 33.99C49.2927 33.7567 49.136 33.58 48.936 33.46C48.736 33.3333 48.506 33.27 48.246 33.27C47.8527 33.27 47.526 33.41 47.266 33.69C47.0127 33.97 46.886 34.3433 46.886 34.81V38H46.136V34.81C46.136 34.4967 46.076 34.2233 45.956 33.99C45.8427 33.7567 45.686 33.58 45.486 33.46C45.286 33.3333 45.056 33.27 44.796 33.27C44.4027 33.27 44.076 33.41 43.816 33.69C43.5627 33.97 43.436 34.3433 43.436 34.81V38H42.686V32.64ZM54.208 38.12C53.7147 38.12 53.2647 38 52.858 37.76C52.4514 37.5133 52.1314 37.1767 51.898 36.75C51.6647 36.3167 51.548 35.8333 51.548 35.3C51.548 34.7733 51.658 34.3 51.878 33.88C52.1047 33.4533 52.4147 33.12 52.808 32.88C53.2014 32.64 53.6414 32.52 54.128 32.52C54.6214 32.52 55.0547 32.64 55.428 32.88C55.8014 33.12 56.088 33.4367 56.288 33.83C56.4947 34.2233 56.598 34.6367 56.598 35.07C56.598 35.2367 56.5847 35.3967 56.558 35.55H52.028V34.85H56.128L55.768 35.15C55.8214 34.7967 55.778 34.4733 55.638 34.18C55.5047 33.88 55.3014 33.6467 55.028 33.48C54.7547 33.3067 54.4547 33.22 54.128 33.22C53.7947 33.22 53.4847 33.3067 53.198 33.48C52.9114 33.6533 52.688 33.9 52.528 34.22C52.3747 34.54 52.3147 34.9033 52.348 35.31C52.3147 35.7233 52.3814 36.09 52.548 36.41C52.7147 36.73 52.9447 36.98 53.238 37.16C53.538 37.3333 53.8614 37.42 54.208 37.42C54.5747 37.42 54.8914 37.3333 55.158 37.16C55.4314 36.98 55.6614 36.74 55.848 36.44L56.488 36.78C56.3147 37.16 56.0214 37.48 55.608 37.74C55.2014 37.9933 54.7347 38.12 54.208 38.12Z" fill="white"/>
<path d="M34.75 19.25H52.25" stroke="white" stroke-width="1.5" stroke-miterlimit="10" stroke-linecap="round" stroke-linejoin="round"/>
<path d="M35.5813 19.2501L35.625 8.72383C35.625 8.19008 35.8788 7.68263 36.2988 7.35013L42.4238 2.58137C43.0538 2.09137 43.9375 2.09137 44.5763 2.58137L50.7013 7.34137C51.13 7.67387 51.375 8.18133 51.375 8.72383V19.2501" stroke="white" stroke-width="1.5" stroke-miterlimit="10" stroke-linejoin="round"/>
<path d="M44.375 14.875H42.625C41.8987 14.875 41.3125 15.4613 41.3125 16.1875V19.25H45.6875V16.1875C45.6875 15.4613 45.1012 14.875 44.375 14.875Z" stroke="white" stroke-width="1.5" stroke-miterlimit="10" stroke-linejoin="round"/>
<path d="M41.3125 12.0312H39.5625C39.0812 12.0312 38.6875 11.6375 38.6875 11.1562V9.84375C38.6875 9.3625 39.0812 8.96875 39.5625 8.96875H41.3125C41.7938 8.96875 42.1875 9.3625 42.1875 9.84375V11.1562C42.1875 11.6375 41.7938 12.0312 41.3125 12.0312Z" stroke="white" stroke-width="1.5" stroke-miterlimit="10" stroke-linejoin="round"/>
<path d="M47.4375 12.0312H45.6875C45.2063 12.0312 44.8125 11.6375 44.8125 11.1562V9.84375C44.8125 9.3625 45.2063 8.96875 45.6875 8.96875H47.4375C47.9188 8.96875 48.3125 9.3625 48.3125 9.84375V11.1562C48.3125 11.6375 47.9188 12.0312 47.4375 12.0312Z" stroke="white" stroke-width="1.5" stroke-miterlimit="10" stroke-linejoin="round"/>
<path d="M49.625 6.125L49.5988 3.5H45.7487" stroke="white" stroke-width="1.5" stroke-miterlimit="10" stroke-linecap="round" stroke-linejoin="round"/>
<path d="M21.88 168.55H24.44C24.92 168.55 25.3433 168.647 25.71 168.84C26.0833 169.027 26.37 169.293 26.57 169.64C26.7767 169.987 26.88 170.383 26.88 170.83C26.88 171.277 26.7767 171.673 26.57 172.02C26.37 172.36 26.0867 172.627 25.72 172.82C25.3533 173.007 24.9267 173.1 24.44 173.1H22.68V176H21.88V168.55ZM24.48 172.35C24.8 172.35 25.08 172.29 25.32 172.17C25.56 172.043 25.7467 171.867 25.88 171.64C26.0133 171.407 26.08 171.133 26.08 170.82C26.08 170.513 26.0133 170.247 25.88 170.02C25.7467 169.787 25.56 169.61 25.32 169.49C25.08 169.363 24.8 169.3 24.48 169.3H22.68V172.35H24.48ZM28.1958 170.64H28.9458V171.52L28.8458 171.39C28.9724 171.13 29.1624 170.93 29.4158 170.79C29.6758 170.643 29.9891 170.57 30.3558 170.57H30.6958V171.32H30.2258C29.8324 171.32 29.5191 171.443 29.2858 171.69C29.0591 171.93 28.9458 172.267 28.9458 172.7V176H28.1958V170.64ZM34.0847 176.12C33.5847 176.12 33.1247 176 32.7047 175.76C32.2914 175.513 31.9614 175.177 31.7147 174.75C31.4747 174.317 31.3547 173.837 31.3547 173.31C31.3547 172.783 31.4714 172.31 31.7047 171.89C31.9447 171.463 32.2714 171.13 32.6847 170.89C33.1047 170.643 33.5714 170.52 34.0847 170.52C34.598 170.52 35.0614 170.64 35.4747 170.88C35.888 171.12 36.2114 171.453 36.4447 171.88C36.6847 172.307 36.8047 172.783 36.8047 173.31C36.8047 173.85 36.6814 174.333 36.4347 174.76C36.1947 175.187 35.8647 175.52 35.4447 175.76C35.0314 176 34.578 176.12 34.0847 176.12ZM34.0847 175.37C34.438 175.37 34.7614 175.28 35.0547 175.1C35.348 174.92 35.578 174.673 35.7447 174.36C35.918 174.04 36.0047 173.69 36.0047 173.31C36.0047 172.93 35.918 172.587 35.7447 172.28C35.578 171.967 35.348 171.72 35.0547 171.54C34.7614 171.36 34.438 171.27 34.0847 171.27C33.7314 171.27 33.4047 171.36 33.1047 171.54C32.8114 171.72 32.578 171.967 32.4047 172.28C32.238 172.587 32.1547 172.93 32.1547 173.31C32.1547 173.697 32.238 174.047 32.4047 174.36C32.578 174.673 32.8114 174.92 33.1047 175.1C33.4047 175.28 33.7314 175.37 34.0847 175.37ZM40.5474 176.12C40.0474 176.12 39.5974 176 39.1974 175.76C38.7974 175.513 38.4808 175.177 38.2474 174.75C38.0208 174.323 37.9074 173.847 37.9074 173.32C37.9074 172.793 38.0208 172.317 38.2474 171.89C38.4741 171.463 38.7874 171.13 39.1874 170.89C39.5941 170.643 40.0474 170.52 40.5474 170.52C41.0008 170.52 41.4074 170.62 41.7674 170.82C42.1274 171.013 42.4141 171.283 42.6274 171.63L42.5074 171.84V168.43H43.2574V176H42.5074V174.8L42.6274 174.91C42.4408 175.29 42.1641 175.587 41.7974 175.8C41.4308 176.013 41.0141 176.12 40.5474 176.12ZM40.5874 175.37C40.9408 175.37 41.2641 175.28 41.5574 175.1C41.8508 174.92 42.0808 174.673 42.2474 174.36C42.4208 174.047 42.5074 173.7 42.5074 173.32C42.5074 172.94 42.4208 172.593 42.2474 172.28C42.0808 171.967 41.8508 171.72 41.5574 171.54C41.2641 171.36 40.9408 171.27 40.5874 171.27C40.2341 171.27 39.9141 171.36 39.6274 171.54C39.3408 171.72 39.1141 171.967 38.9474 172.28C38.7874 172.587 38.7074 172.933 38.7074 173.32C38.7074 173.707 38.7874 174.057 38.9474 174.37C39.1141 174.677 39.3408 174.92 39.6274 175.1C39.9141 175.28 40.2341 175.37 40.5874 175.37ZM46.6973 176.12C46.324 176.12 45.984 176.033 45.6773 175.86C45.3707 175.68 45.1273 175.43 44.9473 175.11C44.774 174.79 44.6873 174.427 44.6873 174.02V170.64H45.4373V173.93C45.4373 174.363 45.564 174.713 45.8173 174.98C46.0773 175.24 46.414 175.37 46.8273 175.37C47.2473 175.37 47.5873 175.233 47.8473 174.96C48.1073 174.68 48.2373 174.303 48.2373 173.83V170.64H48.9873V176H48.2373V174.96L48.4073 175C48.274 175.347 48.054 175.62 47.7473 175.82C47.4473 176.02 47.0973 176.12 46.6973 176.12ZM52.9798 176.12C52.4531 176.12 51.9831 176 51.5698 175.76C51.1631 175.513 50.8464 175.177 50.6198 174.75C50.3931 174.323 50.2798 173.843 50.2798 173.31C50.2798 172.783 50.3931 172.307 50.6198 171.88C50.8464 171.453 51.1631 171.12 51.5698 170.88C51.9831 170.64 52.4531 170.52 52.9798 170.52C53.4731 170.52 53.9298 170.65 54.3498 170.91C54.7698 171.163 55.0664 171.49 55.2398 171.89L54.5598 172.24C54.4198 171.947 54.2064 171.713 53.9198 171.54C53.6398 171.36 53.3264 171.27 52.9798 171.27C52.6331 171.27 52.3131 171.36 52.0198 171.54C51.7331 171.713 51.5031 171.957 51.3298 172.27C51.1631 172.583 51.0798 172.933 51.0798 173.32C51.0798 173.7 51.1631 174.047 51.3298 174.36C51.5031 174.673 51.7331 174.92 52.0198 175.1C52.3131 175.28 52.6331 175.37 52.9798 175.37C53.3331 175.37 53.6498 175.283 53.9298 175.11C54.2098 174.93 54.4198 174.687 54.5598 174.38L55.2398 174.75C55.0598 175.143 54.7598 175.47 54.3398 175.73C53.9198 175.99 53.4664 176.12 52.9798 176.12ZM58.5759 176.06C58.0959 176.06 57.7259 175.92 57.4659 175.64C57.2059 175.36 57.0759 174.96 57.0759 174.44V171.39H56.0859V170.64H56.3359C56.5559 170.64 56.7325 170.567 56.8659 170.42C57.0059 170.273 57.0759 170.083 57.0759 169.85V169.3H57.8259V170.64H59.0059V171.39H57.8259V174.44C57.8259 174.733 57.8925 174.96 58.0259 175.12C58.1592 175.28 58.3859 175.36 58.7059 175.36C58.8525 175.36 58.9792 175.35 59.0859 175.33V176.01C58.9525 176.043 58.7825 176.06 58.5759 176.06ZM62.3128 176.12C61.7995 176.127 61.3461 176.003 60.9528 175.75C60.5595 175.497 60.2728 175.15 60.0928 174.71L60.7228 174.39C60.8828 174.723 61.1028 174.983 61.3828 175.17C61.6628 175.357 61.9695 175.447 62.3028 175.44C62.6295 175.433 62.8995 175.35 63.1128 175.19C63.3261 175.03 63.4295 174.823 63.4228 174.57C63.4161 174.323 63.3128 174.127 63.1128 173.98C62.9128 173.827 62.7128 173.74 62.5128 173.72L61.7428 173.63C61.2628 173.503 60.9061 173.307 60.6728 173.04C60.4395 172.767 60.3195 172.453 60.3128 172.1C60.3061 171.793 60.3795 171.523 60.5328 171.29C60.6861 171.05 60.8995 170.863 61.1728 170.73C61.4461 170.597 61.7495 170.527 62.0828 170.52C62.5361 170.507 62.9495 170.62 63.3228 170.86C63.6961 171.093 63.9628 171.413 64.1228 171.82L63.4928 172.14C63.3528 171.84 63.1561 171.607 62.9028 171.44C62.6495 171.273 62.3695 171.193 62.0628 171.2C61.7695 171.207 61.5328 171.287 61.3528 171.44C61.1728 171.593 61.0861 171.79 61.0928 172.03C61.0995 172.277 61.1895 172.473 61.3628 172.62C61.5361 172.76 61.7128 172.84 61.8928 172.86L62.7828 172.96C63.2161 173.08 63.5561 173.283 63.8028 173.57C64.0561 173.857 64.1861 174.183 64.1928 174.55C64.1995 174.843 64.1228 175.11 63.9628 175.35C63.8095 175.583 63.5861 175.77 63.2928 175.91C63.0061 176.043 62.6795 176.113 62.3128 176.12Z" fill="white"/>
<path d="M35.5412 145.583C35.375 145.583 35.2 145.513 35.0775 145.39C34.8237 145.136 34.8237 144.716 35.0775 144.463L38.2537 141.286C38.5075 141.033 38.9275 141.033 39.1812 141.286C39.435 141.54 39.435 141.96 39.1812 142.214L36.005 145.39C35.8737 145.513 35.7075 145.583 35.5412 145.583Z" fill="white"/>
<path d="M47.4587 145.583C47.2925 145.583 47.1262 145.521 46.995 145.39L43.8187 142.214C43.565 141.96 43.565 141.54 43.8187 141.286C44.0725 141.033 44.4925 141.033 44.7462 141.286L47.9225 144.463C48.1762 144.716 48.1762 145.136 47.9225 145.39C47.8 145.513 47.625 145.583 47.4587 145.583Z" fill="white"/>
<path d="M48.6838 149.275C48.6225 149.275 48.5613 149.275 48.5 149.275H48.2987H34.5C33.8875 149.284 33.1875 149.284 32.68 148.776C32.2775 148.382 32.0938 147.77 32.0938 146.869C32.0938 144.462 33.8525 144.462 34.6925 144.462H48.3075C49.1475 144.462 50.9062 144.462 50.9062 146.869C50.9062 147.779 50.7225 148.382 50.32 148.776C49.865 149.231 49.2525 149.275 48.6838 149.275ZM34.6925 147.962H48.5088C48.9025 147.971 49.27 147.971 49.3925 147.849C49.4538 147.787 49.585 147.577 49.585 146.869C49.585 145.88 49.34 145.775 48.2987 145.775H34.6925C33.6512 145.775 33.4062 145.88 33.4062 146.869C33.4062 147.577 33.5462 147.787 33.5987 147.849C33.7213 147.962 34.0975 147.962 34.4825 147.962H34.6925Z" fill="white"/>
<path d="M39.54 156.012C39.1813 156.012 38.8838 155.715 38.8838 155.356V152.25C38.8838 151.891 39.1813 151.594 39.54 151.594C39.8988 151.594 40.1963 151.891 40.1963 152.25V155.356C40.1963 155.724 39.8988 156.012 39.54 156.012Z" fill="white"/>
<path d="M43.565 156.012C43.2063 156.012 42.9088 155.715 42.9088 155.356V152.25C42.9088 151.891 43.2063 151.594 43.565 151.594C43.9238 151.594 44.2213 151.891 44.2213 152.25V155.356C44.2213 155.724 43.9238 156.012 43.565 156.012Z" fill="white"/>
<path d="M44.0288 159.906H38.7525C35.62 159.906 34.92 158.042 34.6487 156.424L33.415 148.855C33.3537 148.496 33.5987 148.164 33.9575 148.102C34.3162 148.041 34.6487 148.286 34.71 148.645L35.9437 156.205C36.1975 157.754 36.7225 158.594 38.7525 158.594H44.0288C46.2775 158.594 46.5312 157.806 46.82 156.284L48.29 148.627C48.36 148.269 48.7012 148.032 49.06 148.111C49.4187 148.181 49.6462 148.522 49.5762 148.881L48.1062 156.537C47.765 158.314 47.1962 159.906 44.0288 159.906Z" fill="white"/>
<path d="M21.28 245.12C20.5867 245.12 19.9633 244.957 19.41 244.63C18.8633 244.297 18.4333 243.84 18.12 243.26C17.8133 242.673 17.66 242.013 17.66 241.28C17.66 240.547 17.8133 239.887 18.12 239.3C18.4333 238.713 18.8633 238.257 19.41 237.93C19.9633 237.597 20.5867 237.43 21.28 237.43C21.76 237.43 22.2033 237.52 22.61 237.7C23.0167 237.873 23.36 238.103 23.64 238.39C23.9267 238.67 24.1333 238.97 24.26 239.29L23.51 239.62C23.3167 239.173 23.0267 238.823 22.64 238.57C22.2533 238.31 21.8 238.18 21.28 238.18C20.7333 238.18 20.2467 238.31 19.82 238.57C19.3933 238.83 19.06 239.197 18.82 239.67C18.58 240.137 18.46 240.673 18.46 241.28C18.46 241.887 18.58 242.427 18.82 242.9C19.06 243.367 19.3933 243.73 19.82 243.99C20.2467 244.243 20.7333 244.37 21.28 244.37C21.8 244.37 22.2533 244.243 22.64 243.99C23.0267 243.737 23.3167 243.387 23.51 242.94L24.26 243.27C24.1333 243.59 23.9267 243.893 23.64 244.18C23.36 244.46 23.0167 244.687 22.61 244.86C22.2033 245.033 21.76 245.12 21.28 245.12ZM27.4825 245.12C27.1092 245.12 26.7692 245.033 26.4625 244.86C26.1558 244.68 25.9125 244.43 25.7325 244.11C25.5592 243.79 25.4725 243.427 25.4725 243.02V239.64H26.2225V242.93C26.2225 243.363 26.3492 243.713 26.6025 243.98C26.8625 244.24 27.1992 244.37 27.6125 244.37C28.0325 244.37 28.3725 244.233 28.6325 243.96C28.8925 243.68 29.0225 243.303 29.0225 242.83V239.64H29.7725V245H29.0225V243.96L29.1925 244C29.0592 244.347 28.8392 244.62 28.5325 244.82C28.2325 245.02 27.8825 245.12 27.4825 245.12ZM33.2249 245.12C32.7116 245.127 32.2583 245.003 31.8649 244.75C31.4716 244.497 31.1849 244.15 31.0049 243.71L31.6349 243.39C31.7949 243.723 32.0149 243.983 32.2949 244.17C32.5749 244.357 32.8816 244.447 33.2149 244.44C33.5416 244.433 33.8116 244.35 34.0249 244.19C34.2383 244.03 34.3416 243.823 34.3349 243.57C34.3283 243.323 34.2249 243.127 34.0249 242.98C33.8249 242.827 33.6249 242.74 33.4249 242.72L32.6549 242.63C32.1749 242.503 31.8183 242.307 31.5849 242.04C31.3516 241.767 31.2316 241.453 31.2249 241.1C31.2183 240.793 31.2916 240.523 31.4449 240.29C31.5983 240.05 31.8116 239.863 32.0849 239.73C32.3583 239.597 32.6616 239.527 32.9949 239.52C33.4483 239.507 33.8616 239.62 34.2349 239.86C34.6083 240.093 34.8749 240.413 35.0349 240.82L34.4049 241.14C34.2649 240.84 34.0683 240.607 33.8149 240.44C33.5616 240.273 33.2816 240.193 32.9749 240.2C32.6816 240.207 32.4449 240.287 32.2649 240.44C32.0849 240.593 31.9983 240.79 32.0049 241.03C32.0116 241.277 32.1016 241.473 32.2749 241.62C32.4483 241.76 32.6249 241.84 32.8049 241.86L33.6949 241.96C34.1283 242.08 34.4683 242.283 34.7149 242.57C34.9683 242.857 35.0983 243.183 35.1049 243.55C35.1116 243.843 35.0349 244.11 34.8749 244.35C34.7216 244.583 34.4983 244.77 34.2049 244.91C33.9183 245.043 33.5916 245.113 33.2249 245.12ZM38.4528 245.06C37.9728 245.06 37.6028 244.92 37.3428 244.64C37.0828 244.36 36.9528 243.96 36.9528 243.44V240.39H35.9628V239.64H36.2128C36.4328 239.64 36.6095 239.567 36.7428 239.42C36.8828 239.273 36.9528 239.083 36.9528 238.85V238.3H37.7028V239.64H38.8828V240.39H37.7028V243.44C37.7028 243.733 37.7695 243.96 37.9028 244.12C38.0361 244.28 38.2628 244.36 38.5828 244.36C38.7295 244.36 38.8561 244.35 38.9628 244.33V245.01C38.8295 245.043 38.6595 245.06 38.4528 245.06ZM42.5945 245.12C42.0945 245.12 41.6345 245 41.2145 244.76C40.8011 244.513 40.4711 244.177 40.2245 243.75C39.9845 243.317 39.8645 242.837 39.8645 242.31C39.8645 241.783 39.9811 241.31 40.2145 240.89C40.4545 240.463 40.7811 240.13 41.1945 239.89C41.6145 239.643 42.0811 239.52 42.5945 239.52C43.1078 239.52 43.5711 239.64 43.9845 239.88C44.3978 240.12 44.7211 240.453 44.9545 240.88C45.1945 241.307 45.3145 241.783 45.3145 242.31C45.3145 242.85 45.1911 243.333 44.9445 243.76C44.7045 244.187 44.3745 244.52 43.9545 244.76C43.5411 245 43.0878 245.12 42.5945 245.12ZM42.5945 244.37C42.9478 244.37 43.2711 244.28 43.5645 244.1C43.8578 243.92 44.0878 243.673 44.2545 243.36C44.4278 243.04 44.5145 242.69 44.5145 242.31C44.5145 241.93 44.4278 241.587 44.2545 241.28C44.0878 240.967 43.8578 240.72 43.5645 240.54C43.2711 240.36 42.9478 240.27 42.5945 240.27C42.2411 240.27 41.9145 240.36 41.6145 240.54C41.3211 240.72 41.0878 240.967 40.9145 241.28C40.7478 241.587 40.6645 241.93 40.6645 242.31C40.6645 242.697 40.7478 243.047 40.9145 243.36C41.0878 243.673 41.3211 243.92 41.6145 244.1C41.9145 244.28 42.2411 244.37 42.5945 244.37ZM46.6372 239.64H47.3872V240.66L47.2672 240.51C47.4139 240.203 47.6305 239.963 47.9172 239.79C48.2039 239.61 48.5239 239.52 48.8772 239.52C49.2905 239.52 49.6639 239.637 49.9972 239.87C50.3305 240.097 50.5672 240.4 50.7072 240.78L50.4972 240.79C50.6305 240.39 50.8572 240.08 51.1772 239.86C51.5039 239.633 51.8739 239.52 52.2872 239.52C52.6472 239.52 52.9772 239.61 53.2772 239.79C53.5839 239.963 53.8272 240.203 54.0072 240.51C54.1939 240.81 54.2872 241.147 54.2872 241.52V245H53.5372V241.81C53.5372 241.497 53.4772 241.223 53.3572 240.99C53.2439 240.757 53.0872 240.58 52.8872 240.46C52.6872 240.333 52.4572 240.27 52.1972 240.27C51.8039 240.27 51.4772 240.41 51.2172 240.69C50.9639 240.97 50.8372 241.343 50.8372 241.81V245H50.0872V241.81C50.0872 241.497 50.0272 241.223 49.9072 240.99C49.7939 240.757 49.6372 240.58 49.4372 240.46C49.2372 240.333 49.0072 240.27 48.7472 240.27C48.3539 240.27 48.0272 240.41 47.7672 240.69C47.5139 240.97 47.3872 241.343 47.3872 241.81V245H46.6372V239.64ZM58.1592 245.12C57.6659 245.12 57.2159 245 56.8092 244.76C56.4026 244.513 56.0826 244.177 55.8492 243.75C55.6159 243.317 55.4992 242.833 55.4992 242.3C55.4992 241.773 55.6092 241.3 55.8292 240.88C56.0559 240.453 56.3659 240.12 56.7592 239.88C57.1526 239.64 57.5926 239.52 58.0792 239.52C58.5726 239.52 59.0059 239.64 59.3792 239.88C59.7526 240.12 60.0392 240.437 60.2392 240.83C60.4459 241.223 60.5492 241.637 60.5492 242.07C60.5492 242.237 60.5359 242.397 60.5092 242.55H55.9792V241.85H60.0792L59.7192 242.15C59.7726 241.797 59.7292 241.473 59.5892 241.18C59.4559 240.88 59.2526 240.647 58.9792 240.48C58.7059 240.307 58.4059 240.22 58.0792 240.22C57.7459 240.22 57.4359 240.307 57.1492 240.48C56.8626 240.653 56.6392 240.9 56.4792 241.22C56.3259 241.54 56.2659 241.903 56.2992 242.31C56.2659 242.723 56.3326 243.09 56.4992 243.41C56.6659 243.73 56.8959 243.98 57.1892 244.16C57.4892 244.333 57.8126 244.42 58.1592 244.42C58.5259 244.42 58.8426 244.333 59.1092 244.16C59.3826 243.98 59.6126 243.74 59.7992 243.44L60.4392 243.78C60.2659 244.16 59.9726 244.48 59.5592 244.74C59.1526 244.993 58.6859 245.12 58.1592 245.12ZM61.8716 239.64H62.6216V240.52L62.5216 240.39C62.6482 240.13 62.8382 239.93 63.0916 239.79C63.3516 239.643 63.6649 239.57 64.0316 239.57H64.3716V240.32H63.9016C63.5082 240.32 63.1949 240.443 62.9616 240.69C62.7349 240.93 62.6216 241.267 62.6216 241.7V245H61.8716V239.64ZM67.1605 245.12C66.6471 245.127 66.1938 245.003 65.8005 244.75C65.4071 244.497 65.1205 244.15 64.9405 243.71L65.5705 243.39C65.7305 243.723 65.9505 243.983 66.2305 244.17C66.5105 244.357 66.8171 244.447 67.1505 244.44C67.4771 244.433 67.7471 244.35 67.9605 244.19C68.1738 244.03 68.2771 243.823 68.2705 243.57C68.2638 243.323 68.1605 243.127 67.9605 242.98C67.7605 242.827 67.5605 242.74 67.3605 242.72L66.5905 242.63C66.1105 242.503 65.7538 242.307 65.5205 242.04C65.2871 241.767 65.1671 241.453 65.1605 241.1C65.1538 240.793 65.2271 240.523 65.3805 240.29C65.5338 240.05 65.7471 239.863 66.0205 239.73C66.2938 239.597 66.5971 239.527 66.9305 239.52C67.3838 239.507 67.7971 239.62 68.1705 239.86C68.5438 240.093 68.8105 240.413 68.9705 240.82L68.3405 241.14C68.2005 240.84 68.0038 240.607 67.7505 240.44C67.4971 240.273 67.2171 240.193 66.9105 240.2C66.6171 240.207 66.3805 240.287 66.2005 240.44C66.0205 240.593 65.9338 240.79 65.9405 241.03C65.9471 241.277 66.0371 241.473 66.2105 241.62C66.3838 241.76 66.5605 241.84 66.7405 241.86L67.6305 241.96C68.0638 242.08 68.4038 242.283 68.6505 242.57C68.9038 242.857 69.0338 243.183 69.0405 243.55C69.0471 243.843 68.9705 244.11 68.8105 244.35C68.6571 244.583 68.4338 244.77 68.1405 244.91C67.8538 245.043 67.5271 245.113 67.1605 245.12Z" fill="white"/>
<path d="M41.0147 221.167C40.9884 221.167 40.9709 221.167 40.9447 221.167C40.9009 221.159 40.8397 221.159 40.7872 221.167C38.2497 221.089 36.3334 219.094 36.3334 216.635C36.3334 214.132 38.3722 212.094 40.8747 212.094C43.3772 212.094 45.4159 214.132 45.4159 216.635C45.4072 219.094 43.4822 221.089 41.0409 221.167C41.0322 221.167 41.0234 221.167 41.0147 221.167ZM40.8747 213.406C39.0984 213.406 37.6459 214.859 37.6459 216.635C37.6459 218.385 39.0109 219.794 40.7522 219.855C40.8047 219.846 40.9184 219.846 41.0322 219.855C42.7472 219.776 44.0947 218.367 44.1034 216.635C44.1034 214.859 42.6509 213.406 40.8747 213.406Z" fill="white"/>
<path d="M47.4722 221.281C47.4459 221.281 47.4197 221.281 47.3934 221.273C47.0347 221.307 46.6672 221.054 46.6322 220.695C46.5972 220.336 46.8159 220.012 47.1747 219.969C47.2797 219.96 47.3934 219.96 47.4897 219.96C48.7672 219.89 49.7647 218.84 49.7647 217.554C49.7647 216.224 48.6884 215.147 47.3584 215.147C46.9997 215.156 46.7022 214.859 46.7022 214.5C46.7022 214.141 46.9997 213.844 47.3584 213.844C49.4059 213.844 51.0772 215.515 51.0772 217.562C51.0772 219.575 49.5022 221.202 47.4984 221.281C47.4897 221.281 47.4809 221.281 47.4722 221.281Z" fill="white"/>
<path d="M41.0234 230.731C39.3084 230.731 37.5847 230.294 36.2809 229.419C35.0647 228.614 34.3997 227.511 34.3997 226.313C34.3997 225.114 35.0647 224.003 36.2809 223.189C38.9059 221.447 43.1584 221.447 45.7659 223.189C46.9734 223.994 47.6472 225.096 47.6472 226.295C47.6472 227.494 46.9822 228.605 45.7659 229.419C44.4534 230.294 42.7384 230.731 41.0234 230.731ZM37.0072 224.291C36.1672 224.851 35.7122 225.569 35.7122 226.321C35.7122 227.065 36.1759 227.783 37.0072 228.334C39.1859 229.795 42.8609 229.795 45.0397 228.334C45.8797 227.774 46.3347 227.056 46.3347 226.304C46.3347 225.56 45.8709 224.843 45.0397 224.291C42.8609 222.839 39.1859 222.839 37.0072 224.291Z" fill="white"/>
<path d="M49.0472 229.156C48.7409 229.156 48.4697 228.946 48.4084 228.631C48.3384 228.273 48.5659 227.931 48.9159 227.853C49.4672 227.739 49.9747 227.52 50.3684 227.214C50.8672 226.838 51.1384 226.365 51.1384 225.866C51.1384 225.368 50.8672 224.895 50.3772 224.528C49.9922 224.23 49.5109 224.02 48.9422 223.889C48.5922 223.81 48.3647 223.46 48.4434 223.101C48.5222 222.751 48.8722 222.524 49.2309 222.603C49.9834 222.769 50.6397 223.066 51.1734 223.478C51.9872 224.09 52.4509 224.956 52.4509 225.866C52.4509 226.776 51.9784 227.643 51.1647 228.264C50.6222 228.684 49.9397 228.99 49.1872 229.139C49.1347 229.156 49.0909 229.156 49.0472 229.156Z" fill="white"/>
<path d="M0 48H68C69.1046 48 70 48.8954 70 50V118C70 119.105 69.1046 120 68 120H0V48Z" fill="#1977F3" fill-opacity="0.1"/>
<path d="M0 48H2.26829C3.37286 48 4.26829 48.8954 4.26829 50V118C4.26829 119.105 3.37286 120 2.26829 120H0V48Z" fill="#1977F3"/>
<path d="M19.6259 100.672C18.9259 100.672 18.2992 100.508 17.7459 100.182C17.1925 99.8484 16.7559 99.3884 16.4359 98.8018C16.1225 98.2151 15.9659 97.5584 15.9659 96.8318C15.9659 96.0984 16.1225 95.4384 16.4359 94.8518C16.7559 94.2651 17.1925 93.8084 17.7459 93.4818C18.2992 93.1484 18.9259 92.9818 19.6259 92.9818C20.1125 92.9818 20.5625 93.0718 20.9759 93.2518C21.3959 93.4251 21.7492 93.6551 22.0359 93.9418C22.3225 94.2284 22.5292 94.5384 22.6559 94.8718L21.7559 95.2918C21.5759 94.8584 21.2992 94.5184 20.9259 94.2718C20.5592 94.0184 20.1259 93.8918 19.6259 93.8918C19.1059 93.8918 18.6425 94.0151 18.2359 94.2618C17.8359 94.5084 17.5225 94.8551 17.2959 95.3018C17.0692 95.7484 16.9559 96.2584 16.9559 96.8318C16.9559 97.4051 17.0692 97.9151 17.2959 98.3618C17.5225 98.8018 17.8359 99.1451 18.2359 99.3918C18.6425 99.6384 19.1059 99.7618 19.6259 99.7618C20.1259 99.7618 20.5592 99.6384 20.9259 99.3918C21.2992 99.1384 21.5759 98.7984 21.7559 98.3718L22.6559 98.7818C22.5292 99.1151 22.3225 99.4284 22.0359 99.7218C21.7492 100.008 21.3959 100.238 20.9759 100.412C20.5625 100.585 20.1125 100.672 19.6259 100.672ZM25.3514 100.672C25.0047 100.672 24.6914 100.608 24.4114 100.482C24.1381 100.348 23.9247 100.168 23.7714 99.9418C23.6181 99.7084 23.5414 99.4418 23.5414 99.1418C23.5414 98.7018 23.6881 98.3318 23.9814 98.0318C24.2747 97.7318 24.7181 97.5351 25.3114 97.4418L27.3014 97.1118V97.8918L25.5214 98.2018C25.1814 98.2551 24.9314 98.3618 24.7714 98.5218C24.6114 98.6751 24.5314 98.8718 24.5314 99.1118C24.5314 99.3318 24.6181 99.5151 24.7914 99.6618C24.9714 99.8084 25.1947 99.8818 25.4614 99.8818C25.7881 99.8818 26.0781 99.8118 26.3314 99.6718C26.5914 99.5318 26.7914 99.3384 26.9314 99.0918C27.0714 98.8384 27.1414 98.5651 27.1414 98.2718V96.8918C27.1414 96.5984 27.0314 96.3618 26.8114 96.1818C26.5981 95.9951 26.3181 95.9018 25.9714 95.9018C25.6647 95.9018 25.3947 95.9818 25.1614 96.1418C24.9281 96.2951 24.7514 96.5018 24.6314 96.7618L23.8214 96.3418C23.9747 95.9684 24.2547 95.6584 24.6614 95.4118C25.0681 95.1651 25.5114 95.0418 25.9914 95.0418C26.3981 95.0418 26.7581 95.1218 27.0714 95.2818C27.3914 95.4351 27.6381 95.6551 27.8114 95.9418C27.9914 96.2218 28.0814 96.5384 28.0814 96.8918V100.552H27.1714V99.5318L27.3414 99.6018C27.1681 99.9284 26.9047 100.188 26.5514 100.382C26.1981 100.575 25.7981 100.672 25.3514 100.672ZM29.5134 95.1618H30.4334V96.2618L30.3034 96.1018C30.4367 95.7684 30.6467 95.5084 30.9334 95.3218C31.22 95.1351 31.5534 95.0418 31.9334 95.0418C32.36 95.0418 32.74 95.1584 33.0734 95.3918C33.4067 95.6251 33.6367 95.9318 33.7634 96.3118L33.5034 96.3218C33.6434 95.9151 33.8767 95.6018 34.2034 95.3818C34.53 95.1551 34.9034 95.0418 35.3234 95.0418C35.6967 95.0418 36.0334 95.1318 36.3334 95.3118C36.64 95.4851 36.8834 95.7251 37.0634 96.0318C37.2434 96.3384 37.3334 96.6818 37.3334 97.0618V100.552H36.3934V97.3618C36.3934 97.0751 36.34 96.8251 36.2334 96.6118C36.1267 96.3984 35.98 96.2351 35.7934 96.1218C35.6067 96.0084 35.3934 95.9518 35.1534 95.9518C34.7867 95.9518 34.4834 96.0818 34.2434 96.3418C34.01 96.5951 33.8934 96.9351 33.8934 97.3618V100.552H32.9534V97.3618C32.9534 97.0751 32.9 96.8251 32.7934 96.6118C32.6867 96.3984 32.54 96.2351 32.3534 96.1218C32.1734 96.0084 31.96 95.9518 31.7134 95.9518C31.3467 95.9518 31.0434 96.0818 30.8034 96.3418C30.57 96.5951 30.4534 96.9351 30.4534 97.3618V100.552H29.5134V95.1618ZM38.6442 95.1618H39.5642V96.3218L39.4442 96.0918C39.6442 95.7651 39.9176 95.5084 40.2642 95.3218C40.6176 95.1351 41.0142 95.0418 41.4542 95.0418C41.9542 95.0418 42.4076 95.1651 42.8142 95.4118C43.2276 95.6584 43.5476 95.9984 43.7742 96.4318C44.0076 96.8584 44.1242 97.3351 44.1242 97.8618C44.1242 98.3884 44.0076 98.8651 43.7742 99.2918C43.5409 99.7184 43.2209 100.055 42.8142 100.302C42.4076 100.548 41.9509 100.672 41.4442 100.672C41.0042 100.672 40.6042 100.575 40.2442 100.382C39.8909 100.188 39.6209 99.9151 39.4342 99.5618L39.5842 99.4018V102.552H38.6442V95.1618ZM41.3742 99.7718C41.7076 99.7718 42.0076 99.6884 42.2742 99.5218C42.5409 99.3551 42.7509 99.1284 42.9042 98.8418C43.0576 98.5484 43.1342 98.2218 43.1342 97.8618C43.1342 97.5018 43.0576 97.1784 42.9042 96.8918C42.7509 96.5984 42.5409 96.3684 42.2742 96.2018C42.0076 96.0351 41.7076 95.9518 41.3742 95.9518C41.0409 95.9518 40.7376 96.0351 40.4642 96.2018C40.1909 96.3684 39.9742 96.5984 39.8142 96.8918C39.6609 97.1784 39.5842 97.5018 39.5842 97.8618C39.5842 98.2151 39.6609 98.5384 39.8142 98.8318C39.9742 99.1251 40.1909 99.3551 40.4642 99.5218C40.7376 99.6884 41.0409 99.7718 41.3742 99.7718ZM46.9237 100.672C46.577 100.672 46.2637 100.608 45.9837 100.482C45.7103 100.348 45.497 100.168 45.3437 99.9418C45.1903 99.7084 45.1137 99.4418 45.1137 99.1418C45.1137 98.7018 45.2603 98.3318 45.5537 98.0318C45.847 97.7318 46.2903 97.5351 46.8837 97.4418L48.8737 97.1118V97.8918L47.0937 98.2018C46.7537 98.2551 46.5037 98.3618 46.3437 98.5218C46.1837 98.6751 46.1037 98.8718 46.1037 99.1118C46.1037 99.3318 46.1903 99.5151 46.3637 99.6618C46.5437 99.8084 46.767 99.8818 47.0337 99.8818C47.3603 99.8818 47.6503 99.8118 47.9037 99.6718C48.1637 99.5318 48.3637 99.3384 48.5037 99.0918C48.6437 98.8384 48.7137 98.5651 48.7137 98.2718V96.8918C48.7137 96.5984 48.6037 96.3618 48.3837 96.1818C48.1703 95.9951 47.8903 95.9018 47.5437 95.9018C47.237 95.9018 46.967 95.9818 46.7337 96.1418C46.5003 96.2951 46.3237 96.5018 46.2037 96.7618L45.3937 96.3418C45.547 95.9684 45.827 95.6584 46.2337 95.4118C46.6403 95.1651 47.0837 95.0418 47.5637 95.0418C47.9703 95.0418 48.3303 95.1218 48.6437 95.2818C48.9637 95.4351 49.2103 95.6551 49.3837 95.9418C49.5637 96.2218 49.6537 96.5384 49.6537 96.8918V100.552H48.7437V99.5318L48.9137 99.6018C48.7403 99.9284 48.477 100.188 48.1237 100.382C47.7703 100.575 47.3703 100.672 46.9237 100.672ZM51.0856 95.1618H52.0256V100.552H51.0856V95.1618ZM51.5656 94.3018C51.3923 94.3018 51.2523 94.2484 51.1456 94.1418C51.039 94.0351 50.9856 93.8951 50.9856 93.7218C50.9856 93.5484 51.039 93.4084 51.1456 93.3018C51.2523 93.1951 51.3923 93.1418 51.5656 93.1418C51.739 93.1418 51.879 93.1951 51.9856 93.3018C52.0923 93.4084 52.1456 93.5484 52.1456 93.7218C52.1456 93.8951 52.0923 94.0351 51.9856 94.1418C51.879 94.2484 51.739 94.3018 51.5656 94.3018ZM56.0289 102.752C55.4622 102.752 54.9622 102.622 54.5289 102.362C54.1022 102.108 53.7989 101.768 53.6189 101.342L54.4889 100.942C54.5889 101.208 54.7722 101.425 55.0389 101.592C55.3056 101.765 55.6289 101.852 56.0089 101.852C56.3156 101.852 56.5956 101.792 56.8489 101.672C57.1022 101.552 57.3022 101.375 57.4489 101.142C57.5956 100.915 57.6689 100.642 57.6689 100.322V99.1118L57.8289 99.2918C57.6489 99.6518 57.3856 99.9318 57.0389 100.132C56.6922 100.325 56.3022 100.422 55.8689 100.422C55.3756 100.422 54.9256 100.305 54.5189 100.072C54.1189 99.8318 53.8022 99.5084 53.5689 99.1018C53.3422 98.6884 53.2289 98.2318 53.2289 97.7318C53.2289 97.2318 53.3422 96.7784 53.5689 96.3718C53.8022 95.9584 54.1189 95.6351 54.5189 95.4018C54.9189 95.1618 55.3689 95.0418 55.8689 95.0418C56.2822 95.0418 56.6589 95.1351 56.9989 95.3218C57.3456 95.5084 57.6222 95.7718 57.8289 96.1118L57.6989 96.3618V95.1618H58.6089V100.322C58.6089 100.788 58.4989 101.205 58.2789 101.572C58.0589 101.938 57.7522 102.225 57.3589 102.432C56.9656 102.645 56.5222 102.752 56.0289 102.752ZM55.9589 99.5218C56.2722 99.5218 56.5589 99.4418 56.8189 99.2818C57.0856 99.1218 57.2922 98.9051 57.4389 98.6318C57.5922 98.3584 57.6689 98.0584 57.6689 97.7318C57.6689 97.4118 57.5922 97.1151 57.4389 96.8418C57.2922 96.5684 57.0856 96.3518 56.8189 96.1918C56.5589 96.0318 56.2722 95.9518 55.9589 95.9518C55.6322 95.9518 55.3356 96.0318 55.0689 96.1918C54.8022 96.3518 54.5922 96.5684 54.4389 96.8418C54.2922 97.1084 54.2189 97.4051 54.2189 97.7318C54.2189 98.0651 54.2922 98.3684 54.4389 98.6418C54.5922 98.9084 54.8022 99.1218 55.0689 99.2818C55.3356 99.4418 55.6322 99.5218 55.9589 99.5218ZM60.0309 95.1618H60.9509V96.2118L60.8009 96.1218C60.9343 95.7818 61.1476 95.5184 61.4409 95.3318C61.7409 95.1384 62.0909 95.0418 62.4909 95.0418C62.8709 95.0418 63.2143 95.1284 63.5209 95.3018C63.8276 95.4751 64.0676 95.7184 64.2409 96.0318C64.4209 96.3384 64.5109 96.6818 64.5109 97.0618V100.552H63.5709V97.3618C63.5709 97.0684 63.5176 96.8184 63.4109 96.6118C63.3043 96.3984 63.1509 96.2351 62.9509 96.1218C62.7576 96.0084 62.5343 95.9518 62.2809 95.9518C61.8943 95.9518 61.5776 96.0784 61.3309 96.3318C61.0909 96.5851 60.9709 96.9284 60.9709 97.3618V100.552H60.0309V95.1618Z" fill="white"/>
<path d="M41.6159 76.1252C41.4963 76.1252 41.3843 76.0709 41.2797 75.9622C41.0332 75.6907 40.9809 75.1802 41.1677 74.8217C42.3404 72.5516 42.3404 69.3798 41.1677 67.1097C40.9809 66.7512 41.0332 66.2407 41.2797 65.9691C41.5262 65.6976 41.8773 65.7736 42.064 66.1321C43.528 68.9779 43.528 72.9535 42.064 75.7993C41.952 76.0166 41.7877 76.1252 41.6159 76.1252Z" fill="white"/>
<path d="M42.9828 78.8406C42.8633 78.8406 42.7512 78.7863 42.6466 78.6777C42.4002 78.4061 42.3479 77.8956 42.5346 77.5372C44.529 73.6703 44.529 68.261 42.5346 64.3941C42.3479 64.0356 42.4002 63.5251 42.6466 63.2536C42.8931 62.982 43.2442 63.058 43.4309 63.4165C45.7241 67.8591 45.7241 74.0722 43.4309 78.5148C43.3264 78.732 43.1546 78.8406 42.9828 78.8406Z" fill="white"/>
<path d="M38.643 62.0371C37.8064 61.3636 36.7383 61.5374 35.6477 62.5259L33.4666 64.5136C33.3172 64.644 33.1454 64.72 32.9736 64.72H32.279H31.9055C30.0979 64.72 29.1044 66.1647 29.1044 68.7933V73.1381C29.1044 75.7667 30.0979 77.2114 31.9055 77.2114H32.279H32.9736C33.1454 77.2114 33.3172 77.2874 33.4666 77.4178L35.6477 79.4055C36.305 80.003 36.9474 80.2962 37.545 80.2962C37.9334 80.2962 38.3069 80.1659 38.643 79.8943C39.4721 79.2209 39.9352 77.8197 39.9352 75.9514V65.98C39.9352 64.1117 39.4721 62.7105 38.643 62.0371Z" fill="white"/>
</svg>
