<svg width="44" height="48" viewBox="0 0 44 48" fill="none" xmlns="http://www.w3.org/2000/svg">
<path d="M0.88 28.55H3.44C3.92 28.55 4.34333 28.6467 4.71 28.84C5.08333 29.0267 5.37 29.2933 5.57 29.64C5.77667 29.9867 5.88 30.3833 5.88 30.83C5.88 31.2767 5.77667 31.6733 5.57 32.02C5.37 32.36 5.08667 32.6267 4.72 32.82C4.35333 33.0067 3.92667 33.1 3.44 33.1H1.68V36H0.88V28.55ZM3.48 32.35C3.8 32.35 4.08 32.29 4.32 32.17C4.56 32.0433 4.74667 31.8667 4.88 31.64C5.01333 31.4067 5.08 31.1333 5.08 30.82C5.08 30.5133 5.01333 30.2467 4.88 30.02C4.74667 29.7867 4.56 29.61 4.32 29.49C4.08 29.3633 3.8 29.3 3.48 29.3H1.68V32.35H3.48ZM7.19578 30.64H7.94578V31.52L7.84578 31.39C7.97245 31.13 8.16245 30.93 8.41578 30.79C8.67578 30.6433 8.98911 30.57 9.35578 30.57H9.69578V31.32H9.22578C8.83245 31.32 8.51911 31.4433 8.28578 31.69C8.05911 31.93 7.94578 32.2667 7.94578 32.7V36H7.19578V30.64ZM13.0847 36.12C12.5847 36.12 12.1247 36 11.7047 35.76C11.2914 35.5133 10.9614 35.1767 10.7147 34.75C10.4747 34.3167 10.3547 33.8367 10.3547 33.31C10.3547 32.7833 10.4714 32.31 10.7047 31.89C10.9447 31.4633 11.2714 31.13 11.6847 30.89C12.1047 30.6433 12.5714 30.52 13.0847 30.52C13.598 30.52 14.0614 30.64 14.4747 30.88C14.888 31.12 15.2114 31.4533 15.4447 31.88C15.6847 32.3067 15.8047 32.7833 15.8047 33.31C15.8047 33.85 15.6814 34.3333 15.4347 34.76C15.1947 35.1867 14.8647 35.52 14.4447 35.76C14.0314 36 13.578 36.12 13.0847 36.12ZM13.0847 35.37C13.438 35.37 13.7614 35.28 14.0547 35.1C14.348 34.92 14.578 34.6733 14.7447 34.36C14.918 34.04 15.0047 33.69 15.0047 33.31C15.0047 32.93 14.918 32.5867 14.7447 32.28C14.578 31.9667 14.348 31.72 14.0547 31.54C13.7614 31.36 13.438 31.27 13.0847 31.27C12.7314 31.27 12.4047 31.36 12.1047 31.54C11.8114 31.72 11.578 31.9667 11.4047 32.28C11.238 32.5867 11.1547 32.93 11.1547 33.31C11.1547 33.6967 11.238 34.0467 11.4047 34.36C11.578 34.6733 11.8114 34.92 12.1047 35.1C12.4047 35.28 12.7314 35.37 13.0847 35.37ZM19.5474 36.12C19.0474 36.12 18.5974 36 18.1974 35.76C17.7974 35.5133 17.4808 35.1767 17.2474 34.75C17.0208 34.3233 16.9074 33.8467 16.9074 33.32C16.9074 32.7933 17.0208 32.3167 17.2474 31.89C17.4741 31.4633 17.7874 31.13 18.1874 30.89C18.5941 30.6433 19.0474 30.52 19.5474 30.52C20.0008 30.52 20.4074 30.62 20.7674 30.82C21.1274 31.0133 21.4141 31.2833 21.6274 31.63L21.5074 31.84V28.43H22.2574V36H21.5074V34.8L21.6274 34.91C21.4408 35.29 21.1641 35.5867 20.7974 35.8C20.4308 36.0133 20.0141 36.12 19.5474 36.12ZM19.5874 35.37C19.9408 35.37 20.2641 35.28 20.5574 35.1C20.8508 34.92 21.0808 34.6733 21.2474 34.36C21.4208 34.0467 21.5074 33.7 21.5074 33.32C21.5074 32.94 21.4208 32.5933 21.2474 32.28C21.0808 31.9667 20.8508 31.72 20.5574 31.54C20.2641 31.36 19.9408 31.27 19.5874 31.27C19.2341 31.27 18.9141 31.36 18.6274 31.54C18.3408 31.72 18.1141 31.9667 17.9474 32.28C17.7874 32.5867 17.7074 32.9333 17.7074 33.32C17.7074 33.7067 17.7874 34.0567 17.9474 34.37C18.1141 34.6767 18.3408 34.92 18.6274 35.1C18.9141 35.28 19.2341 35.37 19.5874 35.37ZM25.6973 36.12C25.324 36.12 24.984 36.0333 24.6773 35.86C24.3707 35.68 24.1273 35.43 23.9473 35.11C23.774 34.79 23.6873 34.4267 23.6873 34.02V30.64H24.4373V33.93C24.4373 34.3633 24.564 34.7133 24.8173 34.98C25.0773 35.24 25.414 35.37 25.8273 35.37C26.2473 35.37 26.5873 35.2333 26.8473 34.96C27.1073 34.68 27.2373 34.3033 27.2373 33.83V30.64H27.9873V36H27.2373V34.96L27.4073 35C27.274 35.3467 27.054 35.62 26.7473 35.82C26.4473 36.02 26.0973 36.12 25.6973 36.12ZM31.9798 36.12C31.4531 36.12 30.9831 36 30.5698 35.76C30.1631 35.5133 29.8464 35.1767 29.6198 34.75C29.3931 34.3233 29.2798 33.8433 29.2798 33.31C29.2798 32.7833 29.3931 32.3067 29.6198 31.88C29.8464 31.4533 30.1631 31.12 30.5698 30.88C30.9831 30.64 31.4531 30.52 31.9798 30.52C32.4731 30.52 32.9298 30.65 33.3498 30.91C33.7698 31.1633 34.0664 31.49 34.2398 31.89L33.5598 32.24C33.4198 31.9467 33.2064 31.7133 32.9198 31.54C32.6398 31.36 32.3264 31.27 31.9798 31.27C31.6331 31.27 31.3131 31.36 31.0198 31.54C30.7331 31.7133 30.5031 31.9567 30.3298 32.27C30.1631 32.5833 30.0798 32.9333 30.0798 33.32C30.0798 33.7 30.1631 34.0467 30.3298 34.36C30.5031 34.6733 30.7331 34.92 31.0198 35.1C31.3131 35.28 31.6331 35.37 31.9798 35.37C32.3331 35.37 32.6498 35.2833 32.9298 35.11C33.2098 34.93 33.4198 34.6867 33.5598 34.38L34.2398 34.75C34.0598 35.1433 33.7598 35.47 33.3398 35.73C32.9198 35.99 32.4664 36.12 31.9798 36.12ZM37.5759 36.06C37.0959 36.06 36.7259 35.92 36.4659 35.64C36.2059 35.36 36.0759 34.96 36.0759 34.44V31.39H35.0859V30.64H35.3359C35.5559 30.64 35.7325 30.5667 35.8659 30.42C36.0059 30.2733 36.0759 30.0833 36.0759 29.85V29.3H36.8259V30.64H38.0059V31.39H36.8259V34.44C36.8259 34.7333 36.8925 34.96 37.0259 35.12C37.1592 35.28 37.3859 35.36 37.7059 35.36C37.8525 35.36 37.9792 35.35 38.0859 35.33V36.01C37.9525 36.0433 37.7825 36.06 37.5759 36.06ZM41.3128 36.12C40.7995 36.1267 40.3461 36.0033 39.9528 35.75C39.5595 35.4967 39.2728 35.15 39.0928 34.71L39.7228 34.39C39.8828 34.7233 40.1028 34.9833 40.3828 35.17C40.6628 35.3567 40.9695 35.4467 41.3028 35.44C41.6295 35.4333 41.8995 35.35 42.1128 35.19C42.3261 35.03 42.4295 34.8233 42.4228 34.57C42.4161 34.3233 42.3128 34.1267 42.1128 33.98C41.9128 33.8267 41.7128 33.74 41.5128 33.72L40.7428 33.63C40.2628 33.5033 39.9061 33.3067 39.6728 33.04C39.4395 32.7667 39.3195 32.4533 39.3128 32.1C39.3061 31.7933 39.3795 31.5233 39.5328 31.29C39.6861 31.05 39.8995 30.8633 40.1728 30.73C40.4461 30.5967 40.7495 30.5267 41.0828 30.52C41.5361 30.5067 41.9495 30.62 42.3228 30.86C42.6961 31.0933 42.9628 31.4133 43.1228 31.82L42.4928 32.14C42.3528 31.84 42.1561 31.6067 41.9028 31.44C41.6495 31.2733 41.3695 31.1933 41.0628 31.2C40.7695 31.2067 40.5328 31.2867 40.3528 31.44C40.1728 31.5933 40.0861 31.79 40.0928 32.03C40.0995 32.2767 40.1895 32.4733 40.3628 32.62C40.5361 32.76 40.7128 32.84 40.8928 32.86L41.7828 32.96C42.2161 33.08 42.5561 33.2833 42.8028 33.57C43.0561 33.8567 43.1861 34.1833 43.1928 34.55C43.1995 34.8433 43.1228 35.11 42.9628 35.35C42.8095 35.5833 42.5861 35.77 42.2928 35.91C42.0061 36.0433 41.6795 36.1133 41.3128 36.12Z" fill="white"/>
<path d="M14.5412 5.58251C14.375 5.58251 14.2 5.51251 14.0775 5.39001C13.8237 5.13626 13.8237 4.71626 14.0775 4.46251L17.2537 1.28626C17.5075 1.03251 17.9275 1.03251 18.1812 1.28626C18.435 1.54001 18.435 1.96001 18.1812 2.21376L15.005 5.39001C14.8737 5.51251 14.7075 5.58251 14.5412 5.58251Z" fill="white"/>
<path d="M26.4587 5.58251C26.2925 5.58251 26.1262 5.52126 25.995 5.39001L22.8187 2.21376C22.565 1.96001 22.565 1.54001 22.8187 1.28626C23.0725 1.03251 23.4925 1.03251 23.7462 1.28626L26.9225 4.46251C27.1762 4.71626 27.1762 5.13626 26.9225 5.39001C26.8 5.51251 26.625 5.58251 26.4587 5.58251Z" fill="white"/>
<path d="M27.6837 9.2749C27.6225 9.2749 27.5613 9.2749 27.5 9.2749H27.2988H13.5C12.8875 9.28365 12.1875 9.28365 11.68 8.77615C11.2775 8.3824 11.0938 7.7699 11.0938 6.86865C11.0938 4.4624 12.8525 4.4624 13.6925 4.4624H27.3075C28.1475 4.4624 29.9062 4.4624 29.9062 6.86865C29.9062 7.77865 29.7225 8.3824 29.32 8.77615C28.865 9.23115 28.2525 9.2749 27.6837 9.2749ZM13.6925 7.9624H27.5088C27.9025 7.97115 28.27 7.97115 28.3925 7.84865C28.4538 7.7874 28.585 7.5774 28.585 6.86865C28.585 5.8799 28.34 5.7749 27.2988 5.7749H13.6925C12.6512 5.7749 12.4062 5.8799 12.4062 6.86865C12.4062 7.5774 12.5463 7.7874 12.5988 7.84865C12.7213 7.9624 13.0975 7.9624 13.4825 7.9624H13.6925Z" fill="white"/>
<path d="M18.54 16.0125C18.1813 16.0125 17.8838 15.715 17.8838 15.3562V12.25C17.8838 11.8912 18.1813 11.5938 18.54 11.5938C18.8988 11.5938 19.1963 11.8912 19.1963 12.25V15.3562C19.1963 15.7237 18.8988 16.0125 18.54 16.0125Z" fill="white"/>
<path d="M22.565 16.0125C22.2063 16.0125 21.9088 15.715 21.9088 15.3562V12.25C21.9088 11.8912 22.2063 11.5938 22.565 11.5938C22.9238 11.5938 23.2213 11.8912 23.2213 12.25V15.3562C23.2213 15.7237 22.9238 16.0125 22.565 16.0125Z" fill="white"/>
<path d="M23.0288 19.9062H17.7525C14.62 19.9062 13.92 18.0424 13.6487 16.4237L12.415 8.85491C12.3537 8.49616 12.5987 8.16366 12.9575 8.10241C13.3162 8.04116 13.6487 8.28616 13.71 8.64491L14.9437 16.2049C15.1975 17.7537 15.7225 18.5937 17.7525 18.5937H23.0288C25.2775 18.5937 25.5312 17.8062 25.82 16.2837L27.29 8.62741C27.36 8.26866 27.7012 8.03241 28.06 8.11116C28.4187 8.18116 28.6462 8.52241 28.5762 8.88116L27.1062 16.5374C26.765 18.3137 26.1963 19.9062 23.0288 19.9062Z" fill="white"/>
</svg>
